<mxfile host="app.diagrams.net" modified="2024-01-15T08:45:58.037Z" agent="Mozilla/5.0 (Windows NT 10.0; Win64; x64) AppleWebKit/537.36 (KHTML, like Gecko) Chrome/120.0.0.0 Safari/537.36" etag="eTAIIJdFz5wjXO5K0AS0" version="22.1.18" type="device">
  <diagram name="Page-1" id="e7e014a7-5840-1c2e-5031-d8a46d1fe8dd">
    <mxGraphModel dx="1195" dy="650" grid="1" gridSize="10" guides="1" tooltips="1" connect="1" arrows="1" fold="1" page="1" pageScale="1" pageWidth="1169" pageHeight="826" background="none" math="0" shadow="0">
      <root>
        <mxCell id="0" />
        <mxCell id="1" parent="0" />
        <mxCell id="2" value="Customer" style="swimlane;whiteSpace=wrap" parent="1" vertex="1">
          <mxGeometry x="164.5" y="128" width="185.5" height="570" as="geometry" />
        </mxCell>
        <mxCell id="AK60nT234naHl6JZJI5a-50" value="" style="ellipse;html=1;shape=endState;fillColor=#000000;strokeColor=#ff0000;" vertex="1" parent="2">
          <mxGeometry x="65.5" y="52" width="44.5" height="38" as="geometry" />
        </mxCell>
        <mxCell id="AK60nT234naHl6JZJI5a-42" value="Item" style="swimlane;whiteSpace=wrap;startSize=23;" vertex="1" parent="1">
          <mxGeometry x="350" y="128" width="190" height="570" as="geometry" />
        </mxCell>
        <mxCell id="AK60nT234naHl6JZJI5a-43" value="Order Detail" style="swimlane;whiteSpace=wrap" vertex="1" parent="1">
          <mxGeometry x="540" y="128" width="170" height="572" as="geometry" />
        </mxCell>
        <mxCell id="AK60nT234naHl6JZJI5a-49" value="Payment" style="swimlane;whiteSpace=wrap" vertex="1" parent="1">
          <mxGeometry x="860" y="128" width="150" height="570" as="geometry" />
        </mxCell>
        <mxCell id="AK60nT234naHl6JZJI5a-48" value="Order" style="swimlane;whiteSpace=wrap" vertex="1" parent="1">
          <mxGeometry x="710" y="128" width="150" height="570" as="geometry" />
        </mxCell>
      </root>
    </mxGraphModel>
  </diagram>
</mxfile>
